<svg xmlns="http://www.w3.org/2000/svg" width="800" height="800" viewBox="0 0 438.162 438.161" xml:space="preserve">
  <circle cx="330.536" cy="46.147" r="36.911"/>
  <path d="m24.306 304.66 99.45-.163c21.085.746 29.003-9.056 29.003-9.056l49.027-54.688 57.021 55.472-23.123 102.797c-.487 1.941-.745 3.959-.745 6.034 0 13.187 10.7 23.868 23.868 23.868 11.542 0 21.161-8.176 23.39-19.049l28.171-125.393c5.967-19.575-4.58-29.357-4.58-29.357l-50.185-50.184 54.793-63.352 35.027 35.247s13.933 14.679 31.279-2.648l57.136-57.528c2.706-3.328 4.322-7.525 4.322-12.154 0-10.585-8.587-19.221-19.201-19.221-4.676 0-8.989 1.702-12.336 4.523l-47.354 47.287-57.153-57.135c-4.331-4.217-10.27-6.847-16.839-6.847h-89.658c-5.757 0-10.931 2.639-14.344 6.77l-61.889 71.25c-3.844 3.414-6.292 8.367-6.292 13.933 0 10.232 8.338 18.58 18.608 18.58 5.775 0 10.921-2.63 14.334-6.799l57.442-66.345 33.076.153-126.482 146.66-85.537-.221c-1.999-.057-4.026.135-6.053.564C5.621 260.537-2.288 273.121.59 286.011c2.526 11.248 12.614 18.831 23.716 18.649z"/>
</svg>
